PathFileType	4	(X/Y/Z)	/Users/itak/Documents/Research/Walk-IL/dataset/trc/00254_00009.trc
DataRate	CameraRate	NumFrames	NumMarkers	Units	OrigDataRate	OrigDataStartFrame	OrigNumFrames
100.000000	100.000000	4	53	mm	100.000000	68	549
Frame#	Time	RPSI			LPSI			L3			STRN			T10			C7			CLAV			RBAK			LBAK			LSHO			LUPA			LAEL			LAOL			LWTS			LWPS			LFRA			LIFD			LHPS			LHTS			RSHO			RUPA			RAEL			RAOL			RWTS			RWPS			RFRA			RIFD			RHTS			RHPS			RBHD			LFHD			RFHD			LBHD			LHIP			RHIP			RASI			LASI			LKNE			LTHI			LANK			LTIP			LTOE			LMT1			LMT5			LHEE			RKNE			RTHI			RANK			RTIP			RTOE			RMT1			RMT5			RHEE			
		X1	Y1	Z1	X2	Y2	Z2	X3	Y3	Z3	X4	Y4	Z4	X5	Y5	Z5	X6	Y6	Z6	X7	Y7	Z7	X8	Y8	Z8	X9	Y9	Z9	X10	Y10	Z10	X11	Y11	Z11	X12	Y12	Z12	X13	Y13	Z13	X14	Y14	Z14	X15	Y15	Z15	X16	Y16	Z16	X17	Y17	Z17	X18	Y18	Z18	X19	Y19	Z19	X20	Y20	Z20	X21	Y21	Z21	X22	Y22	Z22	X23	Y23	Z23	X24	Y24	Z24	X25	Y25	Z25	X26	Y26	Z26	X27	Y27	Z27	X28	Y28	Z28	X29	Y29	Z29	X30	Y30	Z30	X31	Y31	Z31	X32	Y32	Z32	X33	Y33	Z33	X34	Y34	Z34	X35	Y35	Z35	X36	Y36	Z36	X37	Y37	Z37	X38	Y38	Z38	X39	Y39	Z39	X40	Y40	Z40	X41	Y41	Z41	X42	Y42	Z42	X43	Y43	Z43	X44	Y44	Z44	X45	Y45	Z45	X46	Y46	Z46	X47	Y47	Z47	X48	Y48	Z48	X49	Y49	Z49	X50	Y50	Z50	X51	Y51	Z51	X52	Y52	Z52	X53	Y53	Z53	

69	0.68	-1569.665405273438	1055.739135742188	-417.0597229003906	-1556.237670898438	1058.85400390625	-536.2574462890625	-1563.988647460938	1132.927001953125	-496.0668334960938	-1324.871826171875	1326.252075195312	-469.7610168457031	-1575.822387695312	1259.703369140625	-492.9430236816406	-1520.049194335938	1522.424194335938	-489.9697875976562	-1352.046264648438	1443.8203125	-470.8785705566406	-1598.837524414062	1382.067016601562	-426.2336120605469	-1528.721801757812	1485.22021484375	-602.2874145507812	-1434.237060546875	1487.833984375	-648.1575317382812	-1454.754516601562	1369.428466796875	-729.8585205078125	-1432.937744140625	1158.685791015625	-752.353759765625	-1510.407104492188	1142.366577148438	-715.2659301757812	-1357.634521484375	921.5835571289062	-681.2235107421875	-1367.3056640625	907.5951538085938	-765.2509155273438	-1408.80908203125	1051.63623046875	-762.5940551757812	-1309.475830078125	723.2001342773438	-708.566650390625	-1353.35400390625	818.3474731445312	-759.7620849609375	-1320.076416015625	821.0045776367188	-699.37255859375	-1482.401123046875	1488.266845703125	-315.004150390625	-1508.39208984375	1423.976928710938	-249.9294891357422	-1531.663452148438	1141.795532226562	-213.4911804199219	-1553.365844726562	1135.364013671875	-306.047119140625	-1388.17724609375	927.8356323242188	-240.1542205810547	-1452.836181640625	912.4287719726562	-181.0732421875	-1507.273559570312	1073.351440429688	-197.4124145507812	-1379.310424804688	731.2190551757812	-242.8147277832031	-1357.036010742188	804.7297973632812	-220.6816101074219	-1414.908935546875	804.6632080078125	-176.7066497802734	-1495.644165039062	1677.397216796875	-442.9872131347656	-1281.842529296875	1732.239990234375	-501.5029296875	-1300.257446289062	1729.621337890625	-403.3092041015625	-1428.590942382812	1688.366333007812	-565.2382202148438	-1441.964599609375	992.7667846679688	-664.8179931640625	-1482.582153320312	1014.691101074219	-299.2628173828125	-1383.393432617188	1056.00244140625	-326.8228759765625	-1346.882202148438	1033.96875	-605.9002075195312	-1431.538818359375	506.8662414550781	-609.0289916992188	-1423.631713867188	649.2176513671875	-643.7208862304688	-1515.3369140625	37.96538162231445	-590.1571044921875	-1480.67822265625	285.3463745117188	-613.6405639648438	-1304.932495117188	46.13591003417969	-521.5308837890625	-1374.797729492188	42.94816589355469	-481.4059448242188	-1386.851440429688	38.10866928100586	-599.9572143554688	-1579.359985351562	45.20150756835938	-542.2836303710938	-1466.432250976562	520.8373413085938	-328.7008666992188	-1436.41796875	788.8648681640625	-285.0281982421875	-1534.507202148438	41.52629089355469	-360.9253845214844	-1461.2431640625	405.9369201660156	-344.7853698730469	-1318.238525390625	46.68107223510742	-365.3590393066406	-1366.551147460938	41.92469787597656	-418.6840209960938	-1430.5986328125	43.2578239440918	-316.5357055664062	-1585.572875976562	36.12179565429688	-427.9158935546875	
70	0.6900000000000001	-1569.470092773438	1055.818359375	-416.8809814453125	-1556.135864257812	1058.871215820312	-536.05908203125	-1563.88427734375	1132.956787109375	-495.9131469726562	-1324.608520507812	1326.315673828125	-469.6773681640625	-1575.672607421875	1259.7197265625	-492.7762756347656	-1519.938232421875	1522.44873046875	-489.8577575683594	-1351.866088867188	1443.833618164062	-470.8231811523438	-1598.630737304688	1382.097412109375	-426.0489196777344	-1528.607055664062	1485.1982421875	-602.1488647460938	-1434.128051757812	1487.780517578125	-648.064453125	-1454.634643554688	1369.382446289062	-729.7223510742188	-1432.620239257812	1158.617919921875	-752.0881958007812	-1510.074829101562	1142.239379882812	-715.0145263671875	-1356.118530273438	922.0850830078125	-680.6920776367188	-1366.404418945312	907.641845703125	-764.4174194335938	-1408.275634765625	1051.5849609375	-762.1259765625	-1309.935546875	723.6491088867188	-708.4513549804688	-1352.216796875	818.4483642578125	-758.7001342773438	-1319.006591796875	821.1411743164062	-698.1743774414062	-1482.13427734375	1488.30615234375	-314.8996276855469	-1508.119384765625	1424.027587890625	-249.8168487548828	-1531.378295898438	1141.83447265625	-213.3597106933594	-1553.166137695312	1135.411987304688	-305.9054260253906	-1387.892578125	927.9310913085938	-240.0944519042969	-1452.43896484375	912.4807739257812	-181.0459747314453	-1506.870849609375	1073.407348632812	-197.2566680908203	-1378.881591796875	731.3167724609375	-242.7890319824219	-1356.5537109375	804.8632202148438	-220.7756958007812	-1414.32958984375	804.722412109375	-176.6684722900391	-1495.298217773438	1677.458862304688	-442.8647155761719	-1281.619018554688	1732.1552734375	-501.5654602050781	-1299.947875976562	1729.556518554688	-403.3737182617188	-1428.402221679688	1688.3173828125	-565.1746215820312	-1442.085571289062	992.8096313476562	-664.7794189453125	-1482.447265625	1014.692810058594	-299.1803588867188	-1383.199584960938	1055.949584960938	-326.6902465820312	-1346.845947265625	1033.963745117188	-605.85546875	-1431.622680664062	506.8624267578125	-608.9977416992188	-1423.755004882812	649.2272338867188	-643.6929321289062	-1515.342529296875	37.98249053955078	-590.1405639648438	-1480.741088867188	285.3630981445312	-613.6110229492188	-1304.930419921875	46.13669204711914	-521.5283813476562	-1374.793701171875	42.94745635986328	-481.4101257324219	-1386.841918945312	38.09725952148438	-599.9595336914062	-1579.365112304688	45.20249938964844	-542.2741088867188	-1466.41845703125	520.8172607421875	-328.6763916015625	-1436.286743164062	788.8552856445312	-285.0306396484375	-1534.507934570312	41.52649307250977	-360.9248962402344	-1461.258911132812	405.9241638183594	-344.7644653320312	-1318.238159179688	46.68198394775391	-365.3598937988281	-1366.55078125	41.91857528686523	-418.6814270019531	-1430.596435546875	43.24892425537109	-316.5346374511719	-1585.575073242188	36.11995697021484	-427.9178161621094	
71	0.7000000000000001	-1569.28955078125	1055.891723632812	-416.7171325683594	-1556.012817382812	1058.88330078125	-535.8754272460938	-1563.786987304688	1132.977416992188	-495.7674255371094	-1324.3251953125	1326.382202148438	-469.5997009277344	-1575.513671875	1259.727416992188	-492.6076965332031	-1519.833129882812	1522.467407226562	-489.7507934570312	-1351.697387695312	1443.852416992188	-470.7584838867188	-1598.426391601562	1382.117919921875	-425.8649291992188	-1528.503295898438	1485.181640625	-602.010986328125	-1434.025634765625	1487.728149414062	-647.968994140625	-1454.51318359375	1369.332153320312	-729.5841674804688	-1432.301513671875	1158.54833984375	-751.820556640625	-1509.716674804688	1142.107788085938	-714.7586669921875	-1354.512329101562	922.6156616210938	-680.1113891601562	-1365.4794921875	907.6859130859375	-763.552978515625	-1407.726684570312	1051.529052734375	-761.6429443359375	-1310.740356445312	724.159912109375	-708.1205444335938	-1351.058715820312	818.5532836914062	-757.5986328125	-1317.856567382812	821.348388671875	-696.9451293945312	-1481.871826171875	1488.343017578125	-314.7895812988281	-1507.849975585938	1424.072143554688	-249.6959228515625	-1531.0703125	1141.871337890625	-213.2137603759766	-1552.965209960938	1135.454833984375	-305.76171875	-1387.601928710938	928.0292358398438	-240.0248870849609	-1452.023681640625	912.5352172851562	-181.0147857666016	-1506.471557617188	1073.455200195312	-197.1032104492188	-1378.387329101562	731.4154052734375	-242.7288818359375	-1356.069702148438	805.003173828125	-220.8619995117188	-1413.737182617188	804.7974243164062	-176.6038513183594	-1494.985473632812	1677.519165039062	-442.7548217773438	-1281.407958984375	1732.072875976562	-501.619384765625	-1299.645629882812	1729.494995117188	-403.4215087890625	-1428.203979492188	1688.272216796875	-565.1162719726562	-1442.205810546875	992.8511962890625	-664.74169921875	-1482.315673828125	1014.693664550781	-299.0972900390625	-1382.98095703125	1055.896362304688	-326.5597229003906	-1346.792236328125	1033.961059570312	-605.7989501953125	-1431.696411132812	506.8555603027344	-608.964111328125	-1423.8740234375	649.23876953125	-643.6614990234375	-1515.349487304688	38.00048446655273	-590.1218872070312	-1480.8095703125	285.3834228515625	-613.582275390625	-1304.927856445312	46.13722610473633	-521.525634765625	-1374.788696289062	42.94593048095703	-481.415283203125	-1386.834228515625	38.08865356445312	-599.9617919921875	-1579.370483398438	45.20530319213867	-542.2650756835938	-1466.407104492188	520.7951049804688	-328.649658203125	-1436.154418945312	788.841796875	-285.0286865234375	-1534.510009765625	41.52342224121094	-360.9259033203125	-1461.278564453125	405.9107360839844	-344.742431640625	-1318.238037109375	46.68288803100586	-365.3598937988281	-1366.550659179688	41.91145706176758	-418.6786499023438	-1430.594482421875	43.23804092407227	-316.5340576171875	-1585.578247070312	36.11846923828125	-427.9198913574219	
72	0.71	-1569.129638671875	1055.956909179688	-416.5679931640625	-1555.873046875	1058.89111328125	-535.7069091796875	-1563.694580078125	1132.990966796875	-495.6279296875	-1324.032592773438	1326.446166992188	-469.5277404785156	-1575.347290039062	1259.72705078125	-492.4367065429688	-1519.727783203125	1522.480346679688	-489.6464538574219	-1351.541137695312	1443.875366210938	-470.6859741210938	-1598.226318359375	1382.12939453125	-425.6815185546875	-1528.410278320312	1485.169677734375	-601.8755493164062	-1433.929809570312	1487.681274414062	-647.8710327148438	-1454.390258789062	1369.278076171875	-729.4445190429688	-1431.981079101562	1158.477172851562	-751.548095703125	-1509.34521484375	1141.973510742188	-714.5020751953125	-1352.886352539062	923.1558837890625	-679.4685668945312	-1364.533081054688	907.72705078125	-762.662109375	-1407.1640625	1051.46875	-761.1454467773438	-1311.8466796875	724.7286376953125	-707.5548706054688	-1349.886474609375	818.66357421875	-756.4646606445312	-1316.653442382812	821.6156616210938	-695.7013549804688	-1481.6123046875	1488.377197265625	-314.6739501953125	-1507.57666015625	1424.11181640625	-249.5630035400391	-1530.736450195312	1141.905883789062	-213.0519714355469	-1552.749755859375	1135.4921875	-305.6095886230469	-1387.301391601562	928.1253051757812	-239.9462585449219	-1451.583251953125	912.5918579101562	-180.9722900390625	-1506.080322265625	1073.493530273438	-196.9546813964844	-1377.826416015625	731.5183715820312	-242.6374816894531	-1355.596313476562	805.143798828125	-220.9313507080078	-1413.153930664062	804.8890991210938	-176.5223999023438	-1494.7080078125	1677.576049804688	-442.6528930664062	-1281.205200195312	1731.99462890625	-501.669189453125	-1299.349609375	1729.44189453125	-403.4557189941406	-1427.994995117188	1688.231567382812	-565.0623779296875	-1442.313354492188	992.888671875	-664.697509765625	-1482.208251953125	1014.693359375	-299.0221862792969	-1382.741455078125	1055.847290039062	-326.4368286132812	-1346.721435546875	1033.960083007812	-605.73095703125	-1431.760498046875	506.84716796875	-608.9288330078125	-1423.98388671875	649.2511596679688	-643.62646484375	-1515.35693359375	38.01760864257812	-590.10302734375	-1480.882568359375	285.4068908691406	-613.5553588867188	-1304.924926757812	46.13804244995117	-521.522705078125	-1374.783447265625	42.94353866577148	-481.4208374023438	-1386.8291015625	38.08321762084961	-599.9639892578125	-1579.37548828125	45.20795822143555	-542.2562866210938	-1466.39501953125	520.7705078125	-328.6194763183594	-1436.027099609375	788.8281860351562	-285.0120849609375	-1534.513549804688	41.51812362670898	-360.9282836914062	-1461.300170898438	405.8966369628906	-344.7182006835938	-1318.238159179688	46.68398284912109	-365.3596496582031	-1366.55126953125	41.90538024902344	-418.67626953125	-1430.592407226562	43.22450637817383	-316.5337829589844	-1585.582153320312	36.11699676513672	-427.921630859375	
